<svg xmlns="http://www.w3.org/2000/svg" width="240" height="240" viewBox="0 0 225 225"><g transform="translate(-147.5 -577.005)"><circle cx="260" cy="689.505" r="112.5" fill="#d4d0c0"/><g stroke="#fff" stroke-linecap="round"><path d="M290.357 657.067A30.357 30.357 0 0 1 260 687.424a30.357 30.357 0 0 1-30.357-30.357A30.357 30.357 0 0 1 260 626.71a30.357 30.357 0 0 1 30.357 30.357z" fill="none" stroke-width="8"/><path d="M259.952 712.772c-24.037 0-43.703 18.914-44.989 42.781l-6.355-.07c1.234-27.452 23.863-49.116 51.344-49.15 27.493.017 50.206 22 51.44 49.466l-6.419-.014c-1.153-23.972-20.864-43.013-45.021-43.013z" fill="#fff"/></g></g></svg>